# xmcd
#
# Track frame offsets: 
#        150
#        12959
#        26703
#        41393
#        54047
#        68298
#        81931
#        93821
#        106597
#        118340
#        131140
#        144845
#        158149
#        170852
#        184444
#        198762
#        211300
#        224758
#        237871
#        249299
#        261821
#        275721
#        288093
#        301309
#
# Disc length: 4172 seconds
#
# Revision: 0
# Processed by: cddbd v1.5.2PL0 Copyright (c) Steve Scherf et al.
# Submitted via: ExactAudioCopy v0.99pb4
#
DISCID=4f104a18
DTITLE=Geargia White - 1930 - 1936
DYEAR=1994
DGENRE=Blues
TTITLE0=When you`re smiling, the whole world smiles with you
TTITLE1=Dupree blues
TTITLE2=Dallas man (lost lover blues)
TTITLE3=Your worries ain`t like mine
TTITLE4=You done lost your good thing now
TTITLE5=Honey dripper blues
TTITLE6=Freddie blues
TTITLE7=Easy rider blues
TTITLE8=Graveyard blues
TTITLE9=Your worries ain`t like mine - no. 2
TTITLE10=You done lost your good thing now - no. 2
TTITLE11=Can`t read, can`t write
TTITLE12=Tell me baby
TTITLE13=There ain`t gonna be no doggone afterwhile
TTITLE14=Someday, sweetheart
TTITLE15=River blues
TTITLE16=If you can`t get five, take two (take a)
TTITLE17=If you can`t get five, take two (take b)
TTITLE18=Rattlesnakin` daddy
TTITLE19=Get `em from the peanut man (hot nuts)
TTITLE20=New Dupree blues
TTITLE21=Daddy let me lay it on you
TTITLE22=New hot nuts
TTITLE23=It must be love
EXTD=
EXTT0=
EXTT1=
EXTT2=
EXTT3=
EXTT4=
EXTT5=
EXTT6=
EXTT7=
EXTT8=
EXTT9=
EXTT10=
EXTT11=
EXTT12=
EXTT13=
EXTT14=
EXTT15=
EXTT16=
EXTT17=
EXTT18=
EXTT19=
EXTT20=
EXTT21=
EXTT22=
EXTT23=
PLAYORDER=
